<svg xmlns="http://www.w3.org/2000/svg" viewBox="0 0 400 300" width="406" height="306" class="illustration styles_illustrationTablet__1DWOa"><g id="_274_manager_outline" data-name="#274_manager_outline"><path d="M280.13,162.29a79.83,79.83,0,0,1-20.27,53.28,80.6,80.6,0,0,1-25.2,19q-2.83,1.37-5.78,2.5A77.21,77.21,0,0,1,218,240.39c-1.08.26-2.16.48-3.26.67q-3.39.65-6.89,1c-2,.21-4.1.32-6.19.36-.56,0-1.11,0-1.67,0s-1.18,0-1.76,0q-3.09-.06-6.1-.36-3.49-.33-6.89-1c-1.1-.19-2.18-.41-3.26-.67a77.21,77.21,0,0,1-10.87-3.33q-2.94-1.14-5.78-2.5a80.16,80.16,0,0,1,58.49-148.8,76.75,76.75,0,0,1,8.47,3.18,80.21,80.21,0,0,1,47.83,73.35Z" fill="#fff"></path><path d="M200,243.43c-.6,0-1.2,0-1.79,0-2,0-4.11-.16-6.17-.37-2.31-.22-4.66-.55-7-1-1.17-.21-2.25-.43-3.31-.68a79,79,0,0,1-11-3.38c-2-.79-4-1.64-5.85-2.53A81.16,81.16,0,0,1,224.12,84.8,77.76,77.76,0,0,1,232.7,88a81.14,81.14,0,0,1,18.38,137.29,81.21,81.21,0,0,1-16,10.14c-1.83.89-3.8,1.74-5.85,2.53a78.69,78.69,0,0,1-11,3.38c-1.05.25-2.13.47-3.31.68-2.31.43-4.66.76-7,1-2,.21-4.08.33-6.26.37C201.13,243.42,200.57,243.43,200,243.43Zm0-160.27a79.16,79.16,0,0,0-34.22,150.5c1.79.86,3.71,1.69,5.71,2.47a76,76,0,0,0,10.72,3.29c1,.24,2.07.46,3.21.66,2.27.42,4.56.75,6.82,1,2,.21,4,.33,6,.36,1.13,0,2.25,0,3.38,0,2.14,0,4.19-.16,6.11-.36,2.27-.21,4.56-.54,6.82-1,1.15-.2,2.2-.42,3.21-.66a75.75,75.75,0,0,0,10.73-3.29c2-.78,3.92-1.61,5.71-2.47a79.15,79.15,0,0,0-2.33-143.8,76.57,76.57,0,0,0-8.36-3.15A79.5,79.5,0,0,0,200,83.16Z" fill="#093f68"></path><path d="M196,54.25a34.16,34.16,0,0,1,5.15-.4c12,0,23.53.84,33.23,8.4A57.29,57.29,0,0,1,253.74,90a38,38,0,0,1-7.47-3.38c2.33,1.37,5.81,22-1,43.58L152,129.1c-.55-1.92.31-4.18.39-6.09a25.53,25.53,0,0,0-.94-6.29,87.82,87.82,0,0,1-1.91-16.15c-.12-8.67,2-16.9,5.23-24.84,1.93-4.72,4.21-9.6,8.37-12.54s10.76-3,13.73,1.11A33.19,33.19,0,0,1,196,54.25Z" fill="#725858"></path><path d="M245.26,131.17h0L152,130.1a1,1,0,0,1-.95-.73,10.11,10.11,0,0,1,.09-4.45,14.78,14.78,0,0,0,.26-2,17.94,17.94,0,0,0-.62-4.66c-.1-.46-.21-.93-.3-1.4a88.51,88.51,0,0,1-1.93-16.33c-.11-8,1.62-16.26,5.3-25.23,1.91-4.64,4.31-9.86,8.73-13,4.13-2.92,10.74-3.32,14.35.43a34.1,34.1,0,0,1,18.89-9.53h0a36.62,36.62,0,0,1,5.3-.42c11.57,0,23.71.71,33.85,8.61A58.57,58.57,0,0,1,254.7,89.67a1,1,0,0,1-1.27,1.25,41,41,0,0,1-4.87-2c2.21,7.12,3,24.5-2.34,41.52A1,1,0,0,1,245.26,131.17Zm-92.41-3.06,91.68,1c6.4-20.9,3.1-40.13,1.22-41.72a1,1,0,0,1-.34-1.36,1,1,0,0,1,1.37-.35h0a36.8,36.8,0,0,0,5.36,2.6A56.58,56.58,0,0,0,233.74,63c-9.64-7.51-21.4-8.16-32.62-8.19h-.07a32.63,32.63,0,0,0-4.92.39h0A32,32,0,0,0,177.61,65a1,1,0,0,1-1.55-.1c-2.68-3.75-8.65-3.47-12.33-.87-4,2.81-6.15,7.52-8,12.1-3.58,8.71-5.26,16.71-5.15,24.44a87.31,87.31,0,0,0,1.89,16c.09.46.19.91.29,1.36a19.44,19.44,0,0,1,.67,5.17,16.72,16.72,0,0,1-.29,2.21A12.34,12.34,0,0,0,152.85,128.11Z" fill="#093f68"></path><path d="M250.45,206.34v18.21a80.19,80.19,0,0,1-15.79,10q-2.83,1.37-5.78,2.5A77.21,77.21,0,0,1,218,240.39c-1.08.26-2.16.48-3.26.67q-3.39.65-6.89,1c-2,.21-4.1.32-6.19.36-.56,0-1.11,0-1.67,0s-1.18,0-1.76,0q-3.09-.06-6.1-.36-3.49-.33-6.89-1c-1.1-.19-2.18-.41-3.26-.67a77.21,77.21,0,0,1-10.87-3.33q-2.94-1.14-5.78-2.5a80.19,80.19,0,0,1-15.79-10V206.34c0-22.47,15.28-40.7,34.14-40.7h32.62C235.17,165.64,250.45,183.87,250.45,206.34Z" fill="#f5ac03"></path><path d="M200,243.43c-.6,0-1.2,0-1.79,0-2,0-4.11-.16-6.17-.37-2.31-.22-4.66-.55-7-1-1.17-.21-2.25-.43-3.31-.68a79,79,0,0,1-11-3.38c-2-.79-4-1.64-5.85-2.53a81.21,81.21,0,0,1-16-10.14,1,1,0,0,1-.37-.77V206.34c0-23,15.76-41.7,35.14-41.7h32.62c19.38,0,35.14,18.71,35.14,41.7v18.21a1,1,0,0,1-.37.77,81.21,81.21,0,0,1-16,10.14c-1.83.89-3.8,1.74-5.85,2.53a78.69,78.69,0,0,1-11,3.38c-1.05.25-2.13.47-3.31.68-2.31.43-4.66.76-7,1-2,.21-4.08.33-6.26.37C201.13,243.42,200.57,243.43,200,243.43Zm-49.45-19.36a79.65,79.65,0,0,0,15.23,9.59c1.79.86,3.71,1.69,5.71,2.47a76,76,0,0,0,10.72,3.29c1,.24,2.07.46,3.21.66,2.27.42,4.56.75,6.82,1,2,.21,4,.33,6,.36,1.13,0,2.25,0,3.38,0,2.14,0,4.19-.16,6.11-.36,2.27-.21,4.56-.54,6.82-1,1.15-.2,2.2-.42,3.21-.66a75.75,75.75,0,0,0,10.73-3.29c2-.78,3.92-1.61,5.71-2.47a79.65,79.65,0,0,0,15.23-9.59V206.34c0-21.89-14.87-39.7-33.14-39.7H183.69c-18.27,0-33.14,17.81-33.14,39.7Zm99.9.48h0Z" fill="#093f68"></path><path d="M195,221.93a1,1,0,0,1-.76-.35l-21.94-25.74a1,1,0,0,1,.09-1.39l9.46-8.7-10.65-3.88a1,1,0,0,1-.62-.67,1,1,0,0,1,.18-.89L183,165a1,1,0,0,1,1.4-.15,1,1,0,0,1,.16,1.4l-11.33,14.2,10.89,4a1,1,0,0,1,.33,1.67l-10,9.16,21.31,25a1,1,0,0,1-.76,1.65Z" fill="#093f68"></path><path d="M205,221.93a1,1,0,0,1-.76-1.65l21.31-25-10-9.16a1,1,0,0,1,.33-1.67l10.89-4-11.33-14.2a1,1,0,0,1,.16-1.4,1,1,0,0,1,1.4.15l12.2,15.29a1,1,0,0,1,.18.89,1,1,0,0,1-.62.67l-10.65,3.88,9.46,8.7a1,1,0,0,1,.09,1.39l-21.94,25.74A1,1,0,0,1,205,221.93Z" fill="#093f68"></path><polyline points="192.71 165.62 192.71 157.65 206.55 157.65 206.55 165.62" fill="#ffc9b0"></polyline><path d="M206.55,166.62a1,1,0,0,1-1-1v-7H193.71v7a1,1,0,0,1-2,0v-8a1,1,0,0,1,1-1h13.84a1,1,0,0,1,1,1v8A1,1,0,0,1,206.55,166.62Z" fill="#093f68"></path><ellipse cx="160.08" cy="121.7" rx="13.45" ry="11.59" fill="#ffc9b0"></ellipse><path d="M160.08,134.29c-8,0-14.45-5.65-14.45-12.59s6.48-12.58,14.45-12.58,14.44,5.64,14.44,12.58S168,134.29,160.08,134.29Zm0-23.17c-6.87,0-12.45,4.75-12.45,10.58s5.58,10.59,12.45,10.59,12.44-4.75,12.44-10.59S166.94,111.12,160.08,111.12Z" fill="#093f68"></path><ellipse cx="238.47" cy="121.7" rx="13.45" ry="11.59" fill="#ffc9b0"></ellipse><path d="M238.47,134.29c-8,0-14.45-5.65-14.45-12.59s6.48-12.58,14.45-12.58,14.44,5.64,14.44,12.58S246.43,134.29,238.47,134.29Zm0-23.17c-6.87,0-12.45,4.75-12.45,10.58s5.58,10.59,12.45,10.59,12.44-4.75,12.44-10.59S245.33,111.12,238.47,111.12Z" fill="#093f68"></path><path d="M199.63,159.47h0a40.56,40.56,0,0,1-40.56-40.56V104.17a17.2,17.2,0,0,1,19-17.1c8.48.92,10.66,6.13,24.81,6.38,5.84.1,11.34-6.58,16.22-7.48a17.2,17.2,0,0,1,20.28,16.14l.76,16.8A40.55,40.55,0,0,1,199.63,159.47Z" fill="#ffc9b0"></path><path d="M199.63,160.47a41.61,41.61,0,0,1-41.56-41.56V104.17a18.19,18.19,0,0,1,20.15-18.09A26.92,26.92,0,0,1,187,88.79a34.9,34.9,0,0,0,15.95,3.66c3,.08,6-2,9-3.9,2.43-1.62,4.73-3.14,7.05-3.56a18.2,18.2,0,0,1,21.46,17.07l.76,16.81A41.61,41.61,0,0,1,199.63,160.47ZM176.27,88a16.21,16.21,0,0,0-16.2,16.2v14.74a39.56,39.56,0,1,0,79.11,0l-.76-16.76A16.2,16.2,0,0,0,219.32,87c-1.92.36-4,1.77-6.31,3.26-3.19,2.12-6.5,4.31-10.1,4.24a37.08,37.08,0,0,1-16.74-3.83A24.94,24.94,0,0,0,178,88.06,16.85,16.85,0,0,0,176.27,88Z" fill="#093f68"></path><path d="M214.27,165.62v0l-7,51.06-.45,2.07-5.15,23.63c-.56,0-1.11,0-1.67,0s-1.18,0-1.76,0l-5.18-23.76h0l-.42-1.93-7-51.06v0Z" fill="#fff"></path><path d="M200,243.43c-.6,0-1.2,0-1.79,0a1,1,0,0,1-1-.79l-5.18-23.76a.13.13,0,0,0,0-.06l-.41-1.88-7-51.13v-.14a1,1,0,0,1,1-1h28.62a1,1,0,0,1,1,1v0c0,.05,0,.09,0,.14l-7,51.05L207.8,219l-5.15,23.62a1,1,0,0,1-1,.79C201.13,243.42,200.57,243.43,200,243.43Zm-.95-2c.6,0,1.21,0,1.81,0l5.44-24.94,6.82-49.86H186.79l6.84,49.94.41,1.86s0,0,0,.06Z" fill="#093f68"></path><path d="M207.27,216.7l-.45,2.07-5.15,23.63c-.56,0-1.11,0-1.67,0s-1.18,0-1.76,0l-5.18-23.76h0l-.42-1.93,4.52-39.42,1.27-11,.07-.6v0h2.91v0l.07.6,1.27,11Z" fill="#f56132"></path><path d="M200,243.43c-.6,0-1.2,0-1.79,0a1,1,0,0,1-1-.79l-5.18-23.76a.13.13,0,0,0,0-.06l-.41-1.88a1.22,1.22,0,0,1,0-.33l5.86-51a1,1,0,0,1,1-.92h2.91a1,1,0,0,1,1,1l.07.5,5.79,50.46a1.22,1.22,0,0,1,0,.33l-5.6,25.7a1,1,0,0,1-1,.79C201.13,243.42,200.57,243.43,200,243.43Zm-.95-2c.6,0,1.21,0,1.81,0l5.4-24.77-5.74-50h-1.13l-5.74,50,.39,1.77s0,0,0,.06Z" fill="#093f68"></path><path d="M165.34,235.56a1,1,0,0,1-1-1V197a1,1,0,0,1,2,0v37.54A1,1,0,0,1,165.34,235.56Z" fill="#093f68"></path><path d="M234.66,235.56a1,1,0,0,1-1-1V197a1,1,0,0,1,2,0v37.54A1,1,0,0,1,234.66,235.56Z" fill="#093f68"></path><rect x="194.04" y="166.24" width="11.63" height="11.04" rx="2.91" fill="#f56132"></rect><path d="M202.77,178.28h-5.83a3.91,3.91,0,0,1-3.9-3.9v-5.24a3.91,3.91,0,0,1,3.9-3.9h5.83a3.91,3.91,0,0,1,3.9,3.9v5.24A3.91,3.91,0,0,1,202.77,178.28Zm-5.83-11a1.9,1.9,0,0,0-1.9,1.9v5.24a1.9,1.9,0,0,0,1.9,1.9h5.83a1.9,1.9,0,0,0,1.9-1.9v-5.24a1.9,1.9,0,0,0-1.9-1.9Z" fill="#093f68"></path><circle cx="181.7" cy="117.32" r="3.55" fill="#093f68"></circle><circle cx="218.3" cy="117.32" r="3.55" fill="#093f68"></circle><path d="M200,130.25a23.42,23.42,0,0,1-3.44-.28,1,1,0,0,1-.81-1.16,1,1,0,0,1,1.16-.81,16.86,16.86,0,0,0,5.37,0c.31-.92-1-4.82-3-8.52a1,1,0,1,1,1.77-.93c1,1.85,4,8.06,3,10.34a1.78,1.78,0,0,1-1.22,1A11.83,11.83,0,0,1,200,130.25Z" fill="#093f68"></path><path d="M213.35,140.75h-26.7a1,1,0,1,1,0-2h26.7a1,1,0,1,1,0,2Z" fill="#093f68"></path><path d="M187.75,107.6H171.28a1.59,1.59,0,0,1,0-3.18h16.47a1.59,1.59,0,0,1,0,3.18Z" fill="#093f68"></path><path d="M228.72,107.6H212.25a1.59,1.59,0,0,1,0-3.18h16.47a1.59,1.59,0,0,1,0,3.18Z" fill="#093f68"></path><path d="M184.92,129.37H177.4a9.73,9.73,0,0,1-9.72-9.72v-4.73a4.31,4.31,0,0,1,4.3-4.3h18.37a4.3,4.3,0,0,1,4.29,4.3v4.73A9.73,9.73,0,0,1,184.92,129.37ZM172,112.62a2.3,2.3,0,0,0-2.3,2.3v4.73a7.72,7.72,0,0,0,7.72,7.72h7.52a7.72,7.72,0,0,0,7.72-7.72v-4.73a2.3,2.3,0,0,0-2.29-2.3Z" fill="#093f68"></path><path d="M220.6,129.37h-7.52a9.73,9.73,0,0,1-9.72-9.72v-4.73a4.3,4.3,0,0,1,4.29-4.3H226a4.31,4.31,0,0,1,4.3,4.3v4.73A9.73,9.73,0,0,1,220.6,129.37Zm-12.95-16.75a2.3,2.3,0,0,0-2.29,2.3v4.73a7.72,7.72,0,0,0,7.72,7.72h7.52a7.72,7.72,0,0,0,7.72-7.72v-4.73a2.3,2.3,0,0,0-2.3-2.3Z" fill="#093f68"></path><path d="M203.68,118.32a1,1,0,0,1-.65-.24c-4.06-3.49-8.1-.14-8.28,0a1,1,0,0,1-1.4-.11,1,1,0,0,1,.11-1.41,8.27,8.27,0,0,1,10.87,0,1,1,0,0,1-.65,1.76Z" fill="#093f68"></path><path d="M168.68,115.92a1,1,0,0,1-.43-.1L157,110.49a1,1,0,0,1,.86-1.81L169.11,114a1,1,0,0,1-.43,1.9Z" fill="#093f68"></path><path d="M229.79,115.92a1,1,0,0,1-.9-.56,1,1,0,0,1,.45-1.34l9-4.44a1,1,0,1,1,.88,1.8l-9,4.44A1,1,0,0,1,229.79,115.92Z" fill="#093f68"></path><rect x="213.7" y="214.04" width="16.07" height="9.72" fill="#ffbc0e"></rect><path d="M229.78,224.76H213.7a1,1,0,0,1-1-1V214a1,1,0,0,1,1-1h16.08a1,1,0,0,1,1,1v9.72A1,1,0,0,1,229.78,224.76Zm-15.08-2h14.08V215H214.7Z" fill="#093f68"></path><path d="M221.74,217.08a1,1,0,0,1-1-1V212a1,1,0,0,1,2,0v4.07A1,1,0,0,1,221.74,217.08Z" fill="#093f68"></path></g></svg>